<svg width="130" height="130" viewBox="0 0 130 130" fill="none" xmlns="http://www.w3.org/2000/svg">
<rect width="130" height="130" rx="20" fill="black"/>
<path d="M89.8886 61.2415C89.4453 61.029 88.995 60.8245 88.5389 60.6287C87.7445 45.9916 79.7465 37.6118 66.3169 37.526C66.256 37.5257 66.1955 37.5257 66.1347 37.5257C58.102 37.5257 51.4214 40.9544 47.3095 47.1936L54.6954 52.2602C57.7671 47.5997 62.5879 46.6062 66.1382 46.6062C66.1792 46.6062 66.2204 46.6062 66.261 46.6066C70.6828 46.6347 74.0196 47.9204 76.1792 50.4276C77.7508 52.2529 78.802 54.7753 79.3225 57.9586C75.402 57.2923 71.162 57.0874 66.6294 57.3473C53.8612 58.0828 45.6527 65.5295 46.204 75.877C46.4837 81.1257 49.0986 85.6412 53.5665 88.5909C57.3441 91.0845 62.2094 92.304 67.2658 92.0279C73.9435 91.6618 79.182 89.1141 82.8366 84.4555C85.6122 80.9177 87.3677 76.3331 88.1428 70.5564C91.3251 72.477 93.6836 75.0043 94.9862 78.0425C97.201 83.2071 97.3302 91.694 90.4053 98.613C84.3381 104.674 77.0449 107.297 66.0229 107.378C53.7966 107.287 44.5499 103.366 38.538 95.7233C32.9084 88.5668 29.999 78.2301 29.8904 65C29.999 51.7697 32.9084 41.4329 38.538 34.2765C44.5499 26.634 53.7964 22.713 66.0227 22.6221C78.3378 22.7137 87.7456 26.6535 93.9876 34.3329C97.0483 38.0988 99.3559 42.8347 100.877 48.3566L109.532 46.0473C107.688 39.2505 104.787 33.3937 100.838 28.5364C92.8362 18.691 81.1326 13.6462 66.0529 13.5416H65.9926C50.9435 13.6459 39.371 18.7099 31.5966 28.5928C24.6785 37.3874 21.1099 49.6245 20.99 64.9638L20.9896 65L20.99 65.0361C21.1099 80.3753 24.6785 92.6127 31.5966 101.407C39.371 111.29 50.9435 116.354 65.9926 116.458H66.0529C79.4324 116.366 88.8632 112.863 96.6323 105.1C106.797 94.9455 106.491 82.2165 103.141 74.4024C100.737 68.7988 96.1547 64.2475 89.8886 61.2415ZM66.7878 82.9605C61.1917 83.2757 55.3779 80.7639 55.0913 75.3838C54.8788 71.3947 57.9302 66.9436 67.1312 66.4133C68.185 66.3526 69.219 66.3229 70.2347 66.3229C73.5768 66.3229 76.7035 66.6475 79.546 67.2689C78.4857 80.5098 72.2668 82.6598 66.7878 82.9605Z" fill="white"/>
</svg>
